<?xml version="1.0" encoding="UTF-8" standalone="no"?>
<!-- Created with Inkscape (http://www.inkscape.org/) -->

<svg
   xmlns:dc="http://purl.org/dc/elements/1.1/"
   xmlns:cc="http://creativecommons.org/ns#"
   xmlns:rdf="http://www.w3.org/1999/02/22-rdf-syntax-ns#"
   xmlns:svg="http://www.w3.org/2000/svg"
   xmlns="http://www.w3.org/2000/svg"
   xmlns:sodipodi="http://sodipodi.sourceforge.net/DTD/sodipodi-0.dtd"
   xmlns:inkscape="http://www.inkscape.org/namespaces/inkscape"
   height="512"
   width="512"
   version="1.1"
   viewBox="0 0 511.99999 511.99999"
   id="svg32"
   sodipodi:docname="node-red-music-logo.svg"
   inkscape:version="0.92.2 5c3e80d, 2017-08-06">
  <defs
     id="defs36" />
  <sodipodi:namedview
     pagecolor="#ffffff"
     bordercolor="#666666"
     borderopacity="1"
     objecttolerance="10"
     gridtolerance="10"
     guidetolerance="10"
     inkscape:pageopacity="0"
     inkscape:pageshadow="2"
     inkscape:window-width="1228"
     inkscape:window-height="718"
     id="namedview34"
     showgrid="false"
     inkscape:measure-start="0,0"
     inkscape:measure-end="0,0"
     inkscape:zoom="0.61345359"
     inkscape:cx="168.94845"
     inkscape:cy="315.6963"
     inkscape:window-x="0"
     inkscape:window-y="0"
     inkscape:window-maximized="0"
     inkscape:current-layer="svg32" />
  <metadata
     id="metadata2">
    <rdf:RDF>
      <cc:Work
         rdf:about="">
        <dc:format>image/svg+xml</dc:format>
        <dc:type
           rdf:resource="http://purl.org/dc/dcmitype/StillImage" />
        <dc:title></dc:title>
      </cc:Work>
    </rdf:RDF>
  </metadata>
  <g
     transform="translate(6.3426863,-545.4241)"
     id="g30">
    <rect
       style="color:#000000;fill:#8f0000"
       height="392"
       width="512"
       y="540.35999"
       x="1.3828e-05"
       id="rect4" />
    <rect
       ry="0"
       height="108.23"
       width="500.23001"
       y="938.25"
       x="5.8860002"
       id="rect6"
       style="fill:#ffffff;stroke:#ffffff;stroke-width:11.77200031" />
    <g
       transform="matrix(4,0,0,4,-162,-450.91)"
       id="g10">
      <path
         style="color:#000000;text-indent:0;text-decoration:none;text-decoration-line:none;text-decoration-style:solid;text-decoration-color:#000000;text-transform:none;white-space:normal;isolation:auto;mix-blend-mode:normal;solid-color:#000000;fill:#ffffff;color-rendering:auto;image-rendering:auto;shape-rendering:auto"
         d="m 122.88,305.82 c -2.3846,0 -4.3789,2.0376 -4.3789,4.4222 v 0.77344 c -2.2304,0.10995 -4.0388,0.5467 -5.3281,1.4316 -1.5951,1.0948 -2.4675,2.582 -3.1816,3.877 -0.71415,1.295 -1.2996,2.4093 -2.1504,3.1894 -0.72545,0.66525 -1.7997,1.1216 -3.4512,1.3301 -0.21359,-2.192 -2.0615,-3.9512 -4.3052,-3.9512 h -17.167 c -2.3846,0 -4.4165,1.965 -4.4165,4.3496 v 4.2422 c 0,2.3846 2.0319,4.3516 4.4165,4.3516 h 17.167 c 2.3846,0 4.3872,-1.9669 4.3872,-4.3516 v -1.6133 c 9.7257,0.15307 12.467,2.6032 15.594,5.3379 3.0006,2.6241 6.6658,5.3789 15.436,5.4948 v 0.73633 c 0,2.3846 2.0695,4.3799 4.4541,4.3799 h 17.092 c 2.3846,0 4.4541,-1.9952 4.4541,-4.3799 v -4.2422 c 0,-2.3846 -2.0695,-4.3779 -4.4541,-4.3779 h -17.092 c -2.3846,0 -4.4541,1.9933 -4.4541,4.3779 v 0.58594 c -8.0984,-0.0599 -10.486,-2.1557 -13.498,-4.7897 -2.5035,-2.1893 -5.6398,-4.5852 -11.947,-5.5859 1.176,-1.1795 1.8834,-2.5192 2.5137,-3.6621 0.67724,-1.228 1.2899,-2.2006 2.2695,-2.873 0.76303,-0.52371 1.9757,-0.83922 3.6621,-0.93945 v 0.55078 c 0,2.3846 1.9943,4.3356 4.3789,4.3356 h 17.242 c 2.3846,0 4.3789,-1.951 4.3789,-4.3356 v -4.2422 c 0,-2.3846 -1.9943,-4.4222 -4.3789,-4.4222 z m 0,3 h 17.242 c 0.80513,0 1.3789,0.6171 1.3789,1.4222 v 4.2422 c 0,0.80514 -0.57378,1.3356 -1.3789,1.3356 H 122.88 c -0.80513,0 -1.3789,-0.53045 -1.3789,-1.3356 v -4.2422 c 0,-0.80513 0.57378,-1.4222 1.3789,-1.4222 z m -39.962,11.016 h 17.167 c 0.80513,0 1.4165,0.60112 1.4165,1.4062 v 4.2422 c 0,0.80513 -0.61138,1.4082 -1.4165,1.4082 H 82.918 c -0.80513,0 -1.4165,-0.60307 -1.4165,-1.4082 v -4.2422 c 0,-0.80513 0.61137,-1.4062 1.4165,-1.4062 z m 57.038,9.984 h 17.092 c 0.80513,0 1.4541,0.5728 1.4541,1.3779 v 4.168 c 0,0.80513 -0.64898,1.4541 -1.4541,1.4541 h -17.092 c -0.80513,0 -1.4541,-0.64897 -1.4541,-1.4541 v -4.168 c 0,-0.80513 0.64897,-1.3779 1.4541,-1.3779 z"
         id="path8"
         inkscape:connector-curvature="0" />
    </g>
    <g
       transform="matrix(1.0024,0,0,1.0024,0.26914,-2.6855)"
       id="g28"
       style="fill:#8f0000">
      <path
         d="m 90.51,954.73 v 8.4388 l -7.9801,1.4384 v 59.934 h -13.931 l -28.465,-46.989 -0.49878,0.048 v 37.111 l 7.9805,1.4384 v 8.3908 h -28.929 v -8.3908 l 7.4319,-1.4384 v -50.105 l -7.4319,-1.4384 v -8.4388 h 7.4319 14.001 l 28.302,46.989 0.14384,-0.048 v -37.063 l -6.983,-1.4384 v -8.4388 h 20.971 7.9586 z"
         id="path12"
         inkscape:connector-curvature="0" />
      <path
         d="m 94.501,998.12 q 0,-11.603 6.4729,-18.987 6.5209,-7.4319 17.98,-7.4319 11.507,0 17.98,7.3839 6.5209,7.3839 6.5209,19.035 v 1.0069 q 0,11.699 -6.5209,19.083 -6.4729,7.3359 -17.884,7.3359 -11.555,0 -18.076,-7.3359 -6.4729,-7.384 -6.4729,-19.083 z m 14.001,1.0069 q 0,7.0963 2.4933,11.411 2.4933,4.2674 8.0552,4.2674 5.4181,0 7.9114,-4.3153 2.5412,-4.3153 2.5412,-11.364 v -1.0069 q 0,-6.9044 -2.5412,-11.268 -2.5412,-4.3632 -8.0072,-4.3632 -5.466,0 -7.9593,4.3632 -2.4933,4.3632 -2.4933,11.268 v 1.0069 z"
         id="path14"
         inkscape:connector-curvature="0" />
      <path
         d="m 183.77,1018.2 c -1.6302,2.3973 -3.5641,4.2193 -5.8017,5.466 -2.2056,1.2466 -4.7308,1.8797 -7.5757,1.8797 -6.393,0 -11.364,-2.3432 -14.912,-7.0101 -3.5161,-4.6669 -5.1162,-10.836 -5.1162,-18.508 v -1.0069 c 0,-8.1833 1.6161,-14.784 5.1642,-19.802 3.5481,-5.0185 8.5348,-7.5278 14.96,-7.5278 2.5892,0 4.9226,0.57537 7.0003,1.7261 2.0777,1.1188 4.2289,2.7171 5.7952,4.7948 v -18.604 l -7.9806,-1.4384 v -8.4388 h 7.6513 14.295 v 64.969 l 5.9854,1.4384 v 8.4102 h -18.41 l -1.0548,-6.3484 z m -19.44,-18.172 c 0,4.5391 0.62786,8.1191 2.1302,10.74 1.5343,2.5891 4.0276,3.8837 7.4798,3.8837 2.0457,0 3.8198,-0.4155 5.3222,-1.2466 1.5023,-0.8311 3.0626,-2.0298 4.0216,-3.5961 v -22.008 c -0.95893,-1.6622 -2.5192,-2.9408 -4.0216,-3.8358 -1.4704,-0.927 -3.2125,-1.3905 -5.2263,-1.3905 -3.4203,0 -5.9135,1.5183 -7.4798,4.555 -1.5663,3.0367 -2.2261,7.0003 -2.2261,11.891 v 1.0069 z"
         id="path16"
         inkscape:connector-curvature="0" />
      <path
         d="m 232.87,1025.5 c -7.48,0 -13.457,-2.3974 -17.932,-7.1921 -4.4751,-4.7947 -6.7127,-10.884 -6.7127,-18.268 v -1.9179 c 0,-7.7033 2.1097,-14.048 6.3291,-19.035 4.2513,-4.9865 9.941,-7.4419 17.069,-7.41 7.0007,0 12.435,2.0878 16.302,6.3072 3.8678,4.2194 6.4539,9.93 6.188,17.117 v 7.5004 h -31.36 l -0.0959,0.4109 c 0.25573,3.4203 1.3905,6.2332 3.4043,8.4388 2.0457,2.2056 4.8107,3.3084 8.2949,3.3084 3.1006,0 5.6738,-0.3037 7.7196,-0.911 2.0457,-0.6393 4.2833,-1.6303 6.7127,-2.9728 l 3.7879,8.6306 c -2.1417,1.6941 -4.9226,3.1166 -8.3429,4.2673 -3.3883,1.1507 -7.1763,1.7261 -11.364,1.7261 z m -1.2466,-43.057 c -2.5892,0 -4.635,0.99093 -6.1373,2.9728 -1.5023,1.98187 -2.4293,4.587 -2.781,7.8154 l 0.14385,0.39233 h 17.299 v -1.3992 c 0,-2.9727 -0.83677,-5.3381 -2.2432,-7.0962 -1.3745,-1.7901 -3.4682,-2.6851 -6.2811,-2.6851 z"
         id="path18"
         inkscape:connector-curvature="0" />
      <path
         d="M 291.02,1000.6 H 264.086 V 989.627 H 291.02 Z"
         id="path20"
         inkscape:connector-curvature="0" />
      <path
         d="m 330.82,954.73 c 7.9273,0 14.145,1.822 18.652,5.466 4.5071,3.6121 6.3914,8.6152 6.3914,15.008 0,3.5161 -0.57382,6.5684 -2.4598,9.1576 -1.8859,2.5892 -4.6509,4.6829 -8.2949,6.2811 4.1235,1.2147 7.0802,3.2445 8.8703,6.0894 1.822,2.8129 2.8819,6.3133 2.8819,10.501 v 3.5481 c 0,1.5343 0.15475,2.733 0.76208,3.5961 0.60734,0.8311 1.6142,1.3265 3.0207,1.4863 l 1.2051,0.2398 v 8.4387 h -6.7191 c -4.571,0 -7.7835,-1.2306 -9.6375,-3.6919 -1.854,-2.4613 -2.5972,-5.6419 -2.5972,-9.5416 v -3.9796 c 0,-3.3883 -1.0948,-6.0414 -2.9168,-7.9593 -1.7901,-1.9499 -4.3313,-2.9727 -7.6237,-3.0686 h -11.406 v 18.412 l 6.9825,1.4384 v 8.3908 h -28.929 v -8.3908 l 7.9805,-1.4384 v -50.105 l -7.9805,-1.4384 v -8.4388 h 7.8932 23.926 z m -9.9252,30.782 h 9.6854 c 3.8997,0 6.8245,-0.8311 8.7744,-2.4933 1.9499,-1.6622 2.9248,-4.0596 2.9248,-7.1921 0,-3.1326 -0.97493,-5.6259 -2.9248,-7.4798 -1.9179,-1.8859 -4.7628,-2.8289 -8.5347,-2.8289 h -9.8718 v 19.994 z"
         id="path22"
         inkscape:connector-curvature="0" />
      <path
         d="m 411.73,993.62 h -22.944 v 19.951 h 22.163 l 0.62332,-7.9805 h 10.181 v 18.942 h -54.914 v -8.3908 l 7.9806,-1.4384 v -50.105 l -7.9806,-1.4384 v -8.4451 h 7.5735 47.245 v 18.954 h -10.277 l -0.62332,-7.9806 h -21.972 v 16.959 h 22.944 v 10.973 z"
         id="path24"
         inkscape:connector-curvature="0" />
      <path
         d="m 461.1,954.75 c 8.5347,0 15.567,2.7087 21.097,8.1747 5.5299,5.4341 8.3382,12.392 8.3382,20.927 v 11.555 c 0,8.5667 -2.8082,15.593 -8.3382,21.027 -5.5299,5.4021 -12.562,8.1031 -21.097,8.1031 h -31.416 v -8.3908 l 6.983,-1.5117 v -50.105 l -6.983,-1.3652 v -8.4145 l 7.4424,-0.0733 23.974,0.0754 z m -10.468,10.737 v 48.283 l 9.7484,0.026 c 5.0185,0.013 8.9502,-1.6942 11.795,-5.0825 2.8449,-3.3883 4.3934,-7.7938 4.3934,-13.26 v -11.651 c 0,-5.4021 -1.5486,-9.8189 -4.3934,-13.207 -2.8449,-3.3883 -6.7765,-5.0824 -11.795,-5.0824 l -9.7484,-0.0262 z"
         id="path26"
         inkscape:connector-curvature="0" />
    </g>
  </g>
  <path
     id="path4580"
     d="m 134.78049,112.39577 -71.653896,23.38127 a 7.1660609,7.9183073 0 0 0 -5.01848,7.54962 v 64.68514 a 31.127579,34.395145 0 0 0 -7.166064,-0.96999 c -11.868788,0 -21.498184,7.09183 -21.498184,15.8366 0,8.74478 9.629396,15.83662 21.498184,15.83662 11.868795,0 21.498195,-7.09184 21.498195,-15.83662 v -57.82342 l 57.328485,-18.55854 v 45.68121 a 30.993216,34.246677 0 0 0 -7.16606,-0.97247 c -11.86878,0 -21.49819,7.09183 -21.49819,15.83662 0,8.74478 9.62941,15.8366 21.49819,15.8366 11.86879,0 21.49818,-7.08936 21.49818,-15.8366 v -87.10137 a 7.1660609,7.9183073 0 0 0 -9.32036,-7.54467 z"
     inkscape:connector-curvature="0"
     style="opacity:1;fill:#000000;stroke-width:0.23540002" />
  <text
     xml:space="preserve"
     style="font-style:normal;font-variant:normal;font-weight:600;font-stretch:normal;font-size:107.03713226px;line-height:125%;font-family:'American Typewriter';-inkscape-font-specification:'American Typewriter, Semi-Bold';font-variant-ligatures:normal;font-variant-caps:normal;font-variant-numeric:normal;font-feature-settings:normal;text-align:start;letter-spacing:0px;word-spacing:0px;writing-mode:lr-tb;text-anchor:start;opacity:1;fill:#000000;fill-opacity:1;stroke:none;stroke-width:1.11497974px;stroke-linecap:butt;stroke-linejoin:miter;stroke-opacity:1"
     x="107.65417"
     y="263.39481"
     id="text4593"
     transform="matrix(1.0178071,-0.31046376,0.25597123,0.90442503,0,0)"><tspan
       sodipodi:role="line"
       id="tspan4591"
       x="107.65417"
       y="263.39481"
       style="font-style:normal;font-variant:normal;font-weight:600;font-stretch:normal;font-size:107.03713226px;font-family:'American Typewriter';-inkscape-font-specification:'American Typewriter, Semi-Bold';font-variant-ligatures:normal;font-variant-caps:normal;font-variant-numeric:normal;font-feature-settings:normal;text-align:start;writing-mode:lr-tb;text-anchor:start;stroke-width:1.11497974px">Music</tspan></text>
  <g
     inkscape:groupmode="layer"
     id="layer1"
     inkscape:label="Layer 1" />
</svg>
